<svg width="156" height="44" viewBox="0 0 156 44" fill="none" xmlns="http://www.w3.org/2000/svg">
<g clip-path="url(#clip0_61_610)">
<path d="M0 5.79138H9.34321V17.3159C12.6633 14.1442 17.11 14.1442 18.4039 14.1442C24.9322 14.1442 33.7692 18.3226 33.7692 28.8938C33.7692 38.9617 25.9469 43.9961 18.0161 43.9961C13.6259 43.9961 10.2482 42.0828 9.06725 40.0694H8.95861V43.039H0V5.79138ZM16.6037 36.1972C21.3905 36.1972 24.426 32.7233 24.426 29.0493C24.426 25.4238 21.384 21.9558 16.77 21.9558C11.817 21.9558 9.00316 25.5297 9.00316 29.0016C9.00424 32.8739 11.9321 36.1972 16.6037 36.1972Z" fill="#FEFEFE"/>
<path d="M71.8111 43.0428H62.4679V40.0228H62.3593C60.784 42.7436 56.9011 44 53.241 44C43.335 44 37.54 37.0522 37.54 29.0492C37.54 19.887 44.9125 14.1481 53.241 14.1481C58.3634 14.1481 61.2327 16.3636 62.3593 18.0748H62.4679V15.1042H71.8111V43.0428ZM54.6457 36.1971C60.4982 36.1971 62.4679 31.7671 62.4679 29.0492C62.4679 25.6764 59.8779 21.9558 54.5881 21.9558C49.2408 21.9558 46.8745 25.9816 46.8745 29.1532C46.8789 31.7671 49.0181 36.1971 54.6468 36.1971H54.6457Z" fill="#FEFEFE"/>
<path d="M85.3155 15.1042L89.9871 32.4716H90.0957L95.2182 15.1042H103.098L108.278 32.4745H108.387L113.058 15.1072H122.683L113.116 43.0458H104.452L99.2173 24.972H99.1087L93.8732 43.0458H85.2068L75.6355 15.1042H85.3155Z" fill="#FEFEFE"/>
<path d="M126.79 5.79138H136.133V25.2256H136.241L144.91 15.1042H155.991L144.239 27.3876L155.665 43.0429H145.084L136.249 29.6022H136.14V43.0429H126.797L126.79 5.79138Z" fill="#FEFEFE"/>
<path d="M98.9413 0L88 11.4856H109.946L98.9413 0Z" fill="#FF2400"/>
</g>
<defs>
<clipPath id="clip0_61_610">
<rect width="156" height="44" fill="white"/>
</clipPath>
</defs>
</svg>
